Coordinates
version=1
nRows=4
nColumns=114
inDegrees=yes

Units are S.I. units (second, meters, Newtons, ...)
If the header above contains a line with 'inDegrees', this indicates whether rotational values are in degrees (yes) or radians (no).

endheader 
time	pelvis_tilt	pelvis_list	pelvis_rotation	pelvis_tx	pelvis_ty	pelvis_tz	hip_flexion_l	hip_adduction_l	hip_rotation_l	hip_flexion_r	hip_adduction_r	hip_rotation_r	knee_angle_l	knee_angle_r	ankle_angle_l	ankle_angle_r	subtalar_angle_l	subtalar_angle_r	mtp_angle_l	mtp_angle_r	lumbar_extension	lumbar_bending	lumbar_rotation	arm_flex_l	arm_add_l	arm_rot_l	arm_flex_r	arm_add_r	arm_rot_r	elbow_flex_l	elbow_flex_r	pro_sup_l	pro_sup_r	addbrev_l/activation	addlong_l/activation	addmagDist_l/activation	addmagIsch_l/activation	addmagMid_l/activation	addmagProx_l/activation	bflh_l/activation	bfsh_l/activation	edl_l/activation	ehl_l/activation	fdl_l/activation	fhl_l/activation	gaslat_l/activation	gasmed_l/activation	glmax1_l/activation	glmax2_l/activation	glmax3_l/activation	glmed1_l/activation	glmed2_l/activation	glmed3_l/activation	glmin1_l/activation	glmin2_l/activation	glmin3_l/activation	grac_l/activation	iliacus_l/activation	perbrev_l/activation	perlong_l/activation	piri_l/activation	psoas_l/activation	recfem_l/activation	sart_l/activation	semimem_l/activation	semiten_l/activation	soleus_l/activation	tfl_l/activation	tibant_l/activation	tibpost_l/activation	vasint_l/activation	vaslat_l/activation	vasmed_l/activation	addbrev_r/activation	addlong_r/activation	addmagDist_r/activation	addmagIsch_r/activation	addmagMid_r/activation	addmagProx_r/activation	bflh_r/activation	bfsh_r/activation	edl_r/activation	ehl_r/activation	fdl_r/activation	fhl_r/activation	gaslat_r/activation	gasmed_r/activation	glmax1_r/activation	glmax2_r/activation	glmax3_r/activation	glmed1_r/activation	glmed2_r/activation	glmed3_r/activation	glmin1_r/activation	glmin2_r/activation	glmin3_r/activation	grac_r/activation	iliacus_r/activation	perbrev_r/activation	perlong_r/activation	piri_r/activation	psoas_r/activation	recfem_r/activation	sart_r/activation	semimem_r/activation	semiten_r/activation	soleus_r/activation	tfl_r/activation	tibant_r/activation	tibpost_r/activation	vasint_r/activation	vaslat_r/activation	vasmed_r/activation	
          2.43000000	        -23.03257378	         -7.09679791	        -50.06245499	          1.33969700	          0.96023104	          0.28881080	         16.96509264	        -18.01486845	          0.46272335	         65.38466969	         -1.23468003	        -16.02587290	         21.67431181	        126.63462330	          3.46603617	         -4.41326887	        -15.00951189	        -18.77955459	        -21.04959791	         -3.82311176	        -20.96247002	         20.68319719	         15.39680271	        -34.30548053	        -22.72657376	        -11.19167204	        -15.26223786	        -40.64555839	         26.19898037	         43.57340602	         64.48286172	         74.63139567	         62.16071107	          0.01973609	          0.04472128	          0.01003725	          0.01003126	          0.01035174	          0.01097914	          0.05121230	          0.07413001	          0.08524520	          0.03458508	          0.12097211	          0.19236435	          0.15241531	          0.17080370	          0.02728595	          0.04156873	          0.01002975	          0.07342030	          0.02240430	          0.28771965	          0.04116685	          0.08771146	          0.16359416	          0.01687798	          0.09377364	          0.04874582	          0.03814021	          0.26855329	          0.08380348	          0.30057074	          0.20953280	          0.05865761	          0.03117084	          0.09578049	          0.15391630	          0.13236328	          0.36139616	          0.02429021	          0.06043663	          0.03857350	          0.01590845	          0.01720956	          0.01717430	          0.01401799	          0.01726819	          0.01936973	          0.10017338	          0.05564182	          0.07144331	          0.02793209	          0.01045378	          0.01044798	          0.01610717	          0.01689792	          0.01013103	          0.02105133	          0.01772138	          0.01005654	          0.01008288	          0.01009115	          0.01016583	          0.01013126	          0.01015660	          0.01802776	          0.03613094	          0.02565887	          0.02744778	          0.33457822	          0.13766901	          0.04151716	          0.26323266	          0.05358765	          0.02034413	          0.01002610	          0.04755907	          0.09338219	          0.01032291	          0.01127913	          0.01391285	          0.01202141	
          2.44000000	        -22.34957209	         -6.70473303	        -49.52192310	          1.33897572	          0.94894644	          0.28916438	         17.21391779	        -16.80516736	          2.03345936	         64.69581744	         -0.85820981	        -15.71489703	         23.03997384	        125.42600344	          8.16540337	         -2.95374736	        -15.83059727	        -17.53401541	        -19.58796364	         -3.36480987	        -20.57925856	         19.90740319	         15.03253770	        -33.74406066	        -22.52169287	        -12.36072878	        -14.01769751	        -39.17802190	         26.70529267	         40.82554371	         62.40314788	         74.95540441	         62.98925495	          0.01645864	          0.03727169	          0.01010820	          0.01011176	          0.01010169	          0.01017286	          0.04268212	          0.06179824	          0.07104836	          0.03219042	          0.11022635	          0.18203366	          0.12702807	          0.14234114	          0.24048773	          0.40710786	          0.01014956	          0.06144474	          0.22409562	          0.29982123	          0.03435697	          0.09506165	          0.13648715	          0.01410642	          0.07815371	          0.04062637	          0.03178665	          0.25486307	          0.06984460	          0.26577197	          0.17462530	          0.04890866	          0.02599194	          0.10189812	          0.12836989	          0.11034564	          0.34167314	          0.06634351	          0.11618821	          0.11016898	          0.01326101	          0.01434488	          0.01431744	          0.01169936	          0.01439445	          0.01614789	          0.12530160	          0.12159133	          0.06766562	          0.03645099	          0.01053646	          0.01031659	          0.02344037	          0.02851578	          0.06007084	          0.09719051	          0.01477277	          0.01011613	          0.01135638	          0.04775932	          0.01016910	          0.01079330	          0.03261864	          0.01503262	          0.03012224	          0.02590807	          0.02590722	          0.38002934	          0.11473251	          0.03461023	          0.47641974	          0.04466111	          0.01696254	          0.01001619	          0.03982163	          0.10094007	          0.01027585	          0.01003364	          0.01159750	          0.01003565	
          2.45000000	        -21.44355632	         -6.26515950	        -48.88397710	          1.33792327	          0.93861403	          0.28911407	         17.77374698	        -15.39913386	          3.34927219	         63.78417916	         -0.58295767	        -15.25668988	         24.99307588	        123.95593468	         12.21445503	         -1.47741316	        -16.72792457	        -16.53298997	        -18.35014346	         -2.96883980	        -20.42973246	         18.86812241	         14.72685604	        -32.15106424	        -22.55950191	        -12.82821752	        -12.77029226	        -37.44273468	         26.87306131	         37.66378167	         59.99175939	         75.09128206	         63.53125672	          0.01373061	          0.03106378	          0.01013330	          0.01013614	          0.01012322	          0.01018082	          0.03560105	          0.05152570	          0.05924514	          0.02764513	          0.09217885	          0.15751701	          0.10587458	          0.11862648	          0.37688490	          0.52462724	          0.02064365	          0.05129417	          0.21365846	          0.45770923	          0.02869223	          0.08645599	          0.15603103	          0.01182577	          0.06513794	          0.03386335	          0.03000053	          0.31561807	          0.05821238	          0.26245445	          0.14553786	          0.04076149	          0.02167914	          0.17571685	          0.11542461	          0.09198264	          0.28801966	          0.06953141	          0.24268445	          0.09852053	          0.01105675	          0.01195924	          0.01193959	          0.01004571	          0.01200143	          0.01346414	          0.13684234	          0.23220617	          0.08417494	          0.03061544	          0.01064138	          0.01038759	          0.04124979	          0.05879102	          0.11482674	          0.08115357	          0.01231674	          0.01007723	          0.01358114	          0.11691420	          0.01011469	          0.01076279	          0.05788911	          0.01253940	          0.02511644	          0.02832822	          0.03109015	          0.40818669	          0.09562300	          0.02887304	          0.82499894	          0.03722254	          0.01414754	          0.01002317	          0.21916960	          0.08985638	          0.01027217	          0.01002643	          0.01000748	          0.01001636	
          2.46000000	        -20.40103839	         -5.91894477	        -48.24220830	          1.33695902	          0.92987286	          0.28904828	         18.37148750	        -14.02563083	          4.27504034	         62.42602883	         -0.27536864	        -14.79433739	         27.23457565	        122.10093881	         15.39997531	         -0.10548774	        -17.40868200	        -15.87154657	        -17.62450595	         -2.61957918	        -20.54170714	         17.77036611	         14.60340706	        -29.62256241	        -22.64827401	        -12.92975475	        -11.77836242	        -35.55253795	         26.56612318	         34.08940366	         57.38699855	         76.04544330	         64.52811578	          0.01146954	          0.02589100	          0.01016046	          0.01019224	          0.01012900	          0.01017328	          0.02967425	          0.04297017	          0.04939198	          0.02328288	          0.07684010	          0.13127905	          0.08824750	          0.09886910	          0.31417739	          0.43722073	          0.01724209	          0.04303722	          0.23086024	          0.41849251	          0.02404908	          0.08132981	          0.14634901	          0.01027288	          0.05429626	          0.02823339	          0.02501134	          0.32538251	          0.04852033	          0.29605215	          0.12130175	          0.03397711	          0.01808665	          0.19606246	          0.13313935	          0.07666638	          0.24002410	          0.10090907	          0.28063880	          0.13554872	          0.01001511	          0.01001611	          0.01002643	          0.01004504	          0.01002749	          0.01123276	          0.14185635	          0.34835447	          0.08349507	          0.05103920	          0.01056176	          0.01017701	          0.06293630	          0.09319439	          0.09576522	          0.06765691	          0.01027432	          0.01007706	          0.01225049	          0.11283470	          0.01010668	          0.01135698	          0.05549683	          0.01047228	          0.02095543	          0.02993453	          0.03908295	          0.42555529	          0.07972007	          0.03412609	          0.94164592	          0.03102495	          0.01180992	          0.01001135	          0.22187820	          0.13392184	          0.01015246	          0.01001996	          0.01000713	          0.01001308	
